<mxfile host="" modified="2020-05-24T15:21:41.060Z" agent="5.0 (X11; Linux x86_64) AppleWebKit/537.36 (KHTML, like Gecko) Code/1.45.0 Chrome/78.0.3904.130 Electron/7.2.4 Safari/537.36" version="13.1.3" etag="lrwgP8mNOWNbAz78NI_h" pages="2">
            <diagram id="diagramid" name="Diagram">
              <mxGraphModel><root><mxCell id="0"/><mxCell id="1" parent="0"/><mxCell id="2" value="WebPatchBaseline" style="outlineConnect=0;fontColor=#B3B3B3;gradientColor=#aaaaaa;gradientDirection=north;fillColor=#aaaaaa;strokeColor=#ffffff;dashed=0;verticalLabelPosition=bottom;verticalAlign=top;align=center;html=1;fontSize=12;fontStyle=0;aspect=fixed;shape=mxgraph.aws4.resourceIcon;resIcon=mxgraph.aws4.ssm;" vertex="1" parent="1"><mxGeometry y="200" width="50" height="50" as="geometry"/></mxCell><mxCell id="3" value="DBPatchBaseline" style="outlineConnect=0;fontColor=#B3B3B3;gradientColor=#aaaaaa;gradientDirection=north;fillColor=#aaaaaa;strokeColor=#ffffff;dashed=0;verticalLabelPosition=bottom;verticalAlign=top;align=center;html=1;fontSize=12;fontStyle=0;aspect=fixed;shape=mxgraph.aws4.resourceIcon;resIcon=mxgraph.aws4.ssm;" vertex="1" parent="1"><mxGeometry y="350" width="50" height="50" as="geometry"/></mxCell><mxCell id="4" value="PatchScanMaintenanceWindow" style="outlineConnect=0;fontColor=#B3B3B3;gradientColor=#aaaaaa;gradientDirection=north;fillColor=#aaaaaa;strokeColor=#ffffff;dashed=0;verticalLabelPosition=bottom;verticalAlign=top;align=center;html=1;fontSize=12;fontStyle=0;aspect=fixed;shape=mxgraph.aws4.resourceIcon;resIcon=mxgraph.aws4.ssm;" vertex="1" parent="1"><mxGeometry x="500" y="12.5" width="50" height="50" as="geometry"/></mxCell><mxCell id="5" value="PatchScanMaintenanceWindowTarget" style="outlineConnect=0;fontColor=#B3B3B3;gradientColor=#aaaaaa;gradientDirection=north;fillColor=#aaaaaa;strokeColor=#ffffff;dashed=0;verticalLabelPosition=bottom;verticalAlign=top;align=center;html=1;fontSize=12;fontStyle=0;aspect=fixed;shape=mxgraph.aws4.resourceIcon;resIcon=mxgraph.aws4.ssm;" vertex="1" parent="1"><mxGeometry x="250" y="50" width="50" height="50" as="geometry"/></mxCell><mxCell id="6" value="PatchScanMaintenanceWindowTask" style="outlineConnect=0;fontColor=#B3B3B3;gradientColor=#aaaaaa;gradientDirection=north;fillColor=#aaaaaa;strokeColor=#ffffff;dashed=0;verticalLabelPosition=bottom;verticalAlign=top;align=center;html=1;fontSize=12;fontStyle=0;aspect=fixed;shape=mxgraph.aws4.resourceIcon;resIcon=mxgraph.aws4.ssm;" vertex="1" parent="1"><mxGeometry y="12.5" width="50" height="50" as="geometry"/></mxCell><mxCell id="7" value="PatchScanAssociation" style="outlineConnect=0;fontColor=#B3B3B3;gradientColor=#aaaaaa;gradientDirection=north;fillColor=#aaaaaa;strokeColor=#ffffff;dashed=0;verticalLabelPosition=bottom;verticalAlign=top;align=center;html=1;fontSize=12;fontStyle=0;aspect=fixed;shape=mxgraph.aws4.resourceIcon;resIcon=mxgraph.aws4.ssm;" vertex="1" parent="1"><mxGeometry y="500" width="50" height="50" as="geometry"/></mxCell><mxCell id="8" value="iam  &#xA;role/aws-service-role/ssm.amazonaws.com/awsserviceroleforamazonssm" style="outlineConnect=0;fontColor=#B3B3B3;gradientColor=#aaaaaa;gradientDirection=north;fillColor=#aaaaaa;strokeColor=#ffffff;dashed=0;verticalLabelPosition=bottom;verticalAlign=top;align=center;html=1;fontSize=12;fontStyle=0;aspect=fixed;shape=mxgraph.aws4.resourceIcon;resIcon=mxgraph.aws4.identity_and_access_management;" vertex="1" parent="1"><mxGeometry y="650" width="50" height="50" as="geometry"/></mxCell><mxCell id="PatchScanMaintenanceWindow|PatchScanMaintenanceWindowTarget" value="WindowId" style="edgeStyle=orthogonalEdgeStyle;rounded=1;orthogonalLoop=1;jettySize=auto;html=1;labelBackgroundColor=none;fontColor=#EA6B66;noEdgeStyle=1;orthogonal=1;" edge="1" parent="1" source="5" target="4"><mxGeometry relative="1" as="geometry"><Array as="points"><mxPoint x="312" y="75"/><mxPoint x="488" y="47.5"/></Array></mxGeometry></mxCell><mxCell id="PatchScanMaintenanceWindow|PatchScanMaintenanceWindowTask" value="WindowId" style="edgeStyle=orthogonalEdgeStyle;rounded=1;orthogonalLoop=1;jettySize=auto;html=1;labelBackgroundColor=none;fontColor=#EA6B66;noEdgeStyle=1;orthogonal=1;" edge="1" parent="1" source="6" target="4"><mxGeometry relative="1" as="geometry"><Array as="points"><mxPoint x="62" y="27.5"/><mxPoint x="150"/><mxPoint x="400"/><mxPoint x="488" y="27.5"/></Array></mxGeometry></mxCell><mxCell id="PatchScanMaintenanceWindowTarget|PatchScanMaintenanceWindowTask" value="Values" style="edgeStyle=orthogonalEdgeStyle;rounded=1;orthogonalLoop=1;jettySize=auto;html=1;labelBackgroundColor=none;fontColor=#EA6B66;noEdgeStyle=1;orthogonal=1;" edge="1" parent="1" source="6" target="5"><mxGeometry relative="1" as="geometry"><Array as="points"><mxPoint x="62" y="47.5"/><mxPoint x="238" y="75"/></Array></mxGeometry></mxCell></root></mxGraphModel>
            </diagram>
          </mxfile>